<svg xmlns="http://www.w3.org/2000/svg" viewBox="0 0 1024 1024" width="1024" height="1024">
  <!-- roundabout-center — generated by scripts/gen-placeholder-tiles.mjs, canonical rotation 0 -->
  <rect width="1024" height="1024" fill="#9FC77D" />
<ellipse cx="502.2" cy="574.2" rx="16.5" ry="9.9" fill="#8FBB6E" opacity="0.35" />
<ellipse cx="249.8" cy="453.8" rx="25.1" ry="15.1" fill="#8FBB6E" opacity="0.35" />
<ellipse cx="80.4" cy="900.0" rx="27.0" ry="16.2" fill="#8FBB6E" opacity="0.35" />
<ellipse cx="420.7" cy="291.3" rx="31.2" ry="18.7" fill="#8FBB6E" opacity="0.35" />
<ellipse cx="673.2" cy="78.4" rx="25.0" ry="15.0" fill="#8FBB6E" opacity="0.35" />
<ellipse cx="240.7" cy="688.1" rx="17.5" ry="10.5" fill="#8FBB6E" opacity="0.35" />
<ellipse cx="573.8" cy="498.9" rx="17.9" ry="10.7" fill="#8FBB6E" opacity="0.35" />
<ellipse cx="51.3" cy="961.7" rx="35.3" ry="21.2" fill="#8FBB6E" opacity="0.35" />
<ellipse cx="123.7" cy="454.9" rx="35.0" ry="21.0" fill="#8FBB6E" opacity="0.35" />
<ellipse cx="193.7" cy="429.3" rx="26.1" ry="15.7" fill="#8FBB6E" opacity="0.35" />
<ellipse cx="688.0" cy="287.6" rx="17.7" ry="10.6" fill="#8FBB6E" opacity="0.35" />
<ellipse cx="1009.3" cy="456.3" rx="19.1" ry="11.5" fill="#8FBB6E" opacity="0.35" />
<ellipse cx="560.2" cy="338.3" rx="17.4" ry="10.4" fill="#8FBB6E" opacity="0.35" />
<ellipse cx="791.4" cy="360.1" rx="21.7" ry="13.0" fill="#8FBB6E" opacity="0.35" />
<ellipse cx="81.5" cy="948.5" rx="19.3" ry="11.6" fill="#8FBB6E" opacity="0.35" />
<ellipse cx="905.3" cy="482.0" rx="19.2" ry="11.5" fill="#8FBB6E" opacity="0.35" />
<ellipse cx="617.4" cy="411.4" rx="30.7" ry="18.4" fill="#8FBB6E" opacity="0.35" />
<ellipse cx="668.5" cy="139.3" rx="18.9" ry="11.4" fill="#8FBB6E" opacity="0.35" />
<ellipse cx="461.2" cy="92.4" rx="15.0" ry="9.0" fill="#8FBB6E" opacity="0.35" />
<ellipse cx="422.2" cy="697.3" rx="28.2" ry="16.9" fill="#8FBB6E" opacity="0.35" />
<ellipse cx="978.1" cy="332.7" rx="23.6" ry="14.2" fill="#8FBB6E" opacity="0.35" />
<ellipse cx="507.7" cy="449.4" rx="32.4" ry="19.5" fill="#8FBB6E" opacity="0.35" />
<ellipse cx="461.5" cy="449.9" rx="19.8" ry="11.9" fill="#8FBB6E" opacity="0.35" />
<ellipse cx="242.4" cy="760.9" rx="16.9" ry="10.1" fill="#8FBB6E" opacity="0.35" />
  <circle cx="512" cy="512" r="320" fill="#596168" />
  <rect x="356" y="0" width="312" height="512" fill="#596168" />
  <rect x="356" y="512" width="312" height="512" fill="#596168" />
  <rect x="0" y="356" width="512" height="312" fill="#596168" />
  <rect x="512" y="356" width="512" height="312" fill="#596168" />
  <circle cx="512" cy="512" r="120" fill="#9FC77D" />
  <line x1="512" y1="0" x2="512" y2="192" stroke="#F7F5ED" stroke-width="10" stroke-dasharray="40 24" stroke-linecap="butt" />
  <line x1="512" y1="832" x2="512" y2="1024" stroke="#F7F5ED" stroke-width="10" stroke-dasharray="40 24" stroke-linecap="butt" />
  <line x1="0" y1="512" x2="192" y2="512" stroke="#F7F5ED" stroke-width="10" stroke-dasharray="40 24" stroke-linecap="butt" />
  <line x1="832" y1="512" x2="1024" y2="512" stroke="#F7F5ED" stroke-width="10" stroke-dasharray="40 24" stroke-linecap="butt" />
</svg>
