<?xml version="1.0" encoding="UTF-8" standalone="no"?>
<!-- Created with Inkscape (http://www.inkscape.org/) -->

<svg
   xmlns:dc="http://purl.org/dc/elements/1.1/"
   xmlns:cc="http://creativecommons.org/ns#"
   xmlns:rdf="http://www.w3.org/1999/02/22-rdf-syntax-ns#"
   xmlns:svg="http://www.w3.org/2000/svg"
   xmlns="http://www.w3.org/2000/svg"
   xmlns:sodipodi="http://sodipodi.sourceforge.net/DTD/sodipodi-0.dtd"
   xmlns:inkscape="http://www.inkscape.org/namespaces/inkscape"
   width="60.00013"
   height="60.00013"
   id="svg2"
   version="1.1"
   inkscape:version="0.48.4 r9939"
   sodipodi:docname="E3.svg">
  <defs
     id="defs4" />
  <sodipodi:namedview
     id="base"
     pagecolor="#ffffff"
     bordercolor="#666666"
     borderopacity="1.0"
     inkscape:pageopacity="0.0"
     inkscape:pageshadow="2"
     inkscape:zoom="14.383302"
     inkscape:cx="30.000061"
     inkscape:cy="30.000069"
     inkscape:document-units="px"
     inkscape:current-layer="layer1"
     showgrid="false"
     showborder="false"
     inkscape:showpageshadow="false"
     fit-margin-top="0"
     fit-margin-left="0"
     fit-margin-right="0"
     fit-margin-bottom="0"
     inkscape:window-width="1920"
     inkscape:window-height="1028"
     inkscape:window-x="-8"
     inkscape:window-y="-8"
     inkscape:window-maximized="1" />
  <metadata
     id="metadata7">
    <rdf:RDF>
      <cc:Work
         rdf:about="">
        <dc:format>image/svg+xml</dc:format>
        <dc:type
           rdf:resource="http://purl.org/dc/dcmitype/StillImage" />
        <dc:title></dc:title>
      </cc:Work>
    </rdf:RDF>
  </metadata>
  <g
     inkscape:label="Laag 1"
     inkscape:groupmode="layer"
     id="layer1"
     transform="translate(-393.68412,-328.86682)">
    <g
       id="g13715-7"
       style="font-style:normal;font-variant:normal;font-weight:normal;font-stretch:normal;letter-spacing:normal;word-spacing:normal;text-anchor:start;fill:none;stroke:#000000;stroke-width:1.1499083;stroke-linecap:butt;stroke-linejoin:miter;stroke-miterlimit:10.43299961;stroke-opacity:1;stroke-dasharray:none;stroke-dashoffset:0"
       xml:space="preserve"
       transform="matrix(0.21201257,0,0,-0.21201257,360.98175,443.3006)">
<path
   id="path13717-1"
   style="fill:#e3001b;fill-opacity:1;fill-rule:nonzero;stroke:none"
   d="m 295.25,256.75 7.32,0.14 7.21,0.51 7.12,0.86 7,1.21 6.87,1.55 6.74,1.88 6.6,2.19 6.45,2.51 6.29,2.82 6.13,3.1 5.94,3.39 5.76,3.67 5.57,3.93 5.36,4.19 5.15,4.43 4.93,4.68 4.7,4.9 4.46,5.13 4.21,5.34 3.96,5.54 3.69,5.73 3.41,5.92 3.14,6.1 2.84,6.26 2.54,6.42 2.23,6.57 1.91,6.71 1.58,6.84 1.25,6.96 0.9,7.07 0.55,7.18 0.19,7.27 c -0.02,78.52 -63.48,141.98 -142,142 -78.03,-0.02 -141.48,-63.48 -141,-142 -0.48,-78.03 62.97,-141.48 141,-141 z"
   inkscape:connector-curvature="0" />
<path
   id="path13719-0"
   style="fill:#ffffff;fill-rule:nonzero;stroke:#ffffff;stroke-width:0"
   d="m 295.74801,299.19791 5.12394,0.14286 5.04775,0.40001 4.98108,0.64764 4.89537,0.88574 4.80964,1.12384 4.7144,1.35241 4.61917,1.56195 4.50487,1.79052 4.40012,1.99053 4.28581,2.19053 4.15249,2.40005 4.02867,2.58102 3.88582,2.76197 3.74295,2.94294 3.60009,3.11437 3.43818,3.28579 3.2858,3.43819 3.10484,3.59056 2.94294,3.74295 2.75245,3.8763 2.57149,4.00962 2.38101,4.14296 2.17149,4.26677 1.97148,4.38107 1.76195,4.48583 1.54289,4.59059 1.32384,4.68583 1.08574,4.78107 0.84765,4.85727 0.60953,4.94298 0.36192,5.00965 0.10479,5.07632 c 0.26667,54.95378 -44.09636,99.31682 -99.05014,99.05014 -54.48709,0.26668 -98.85013,-44.09636 -99.05013,-99.05014 0.2,-54.48709 44.56304,-98.85013 99.05013,-99.05013 z"
   inkscape:connector-curvature="0" />





<path
   inkscape:connector-curvature="0"
   d="m 295.7479,265.00183 6.89291,0.19217 6.79042,0.53811 6.70074,0.87123 6.58543,1.19153 6.47012,1.51183 6.34199,1.81932 6.21388,2.10119 6.06013,2.40868 5.9192,2.67772 5.76546,2.9468 5.58608,3.22865 5.41952,3.47208 5.22733,3.71551 5.03518,3.95895 4.84299,4.18956 4.62517,4.42018 4.42017,4.62518 4.17674,4.83016 3.95897,5.03517 3.70268,5.21453 3.45928,5.39391 3.20302,5.57326 2.92117,5.73982 2.6521,5.89357 2.37025,6.03452 2.07557,6.17545 1.78088,6.30355 1.46058,6.43168 1.14027,6.53418 0.81998,6.64949 0.48687,6.73917 0.14092,6.82886 c 0.35875,73.92592 -59.3201,133.60477 -133.246,133.24601 -73.29812,0.35876 -132.97696,-59.32009 -133.24602,-133.24601 0.26906,-73.29811 59.9479,-132.97696 133.24602,-133.24601 z"
   style="fill:none;stroke:#ffffff;stroke-width:7.07505178;stroke-miterlimit:10.43299961;stroke-dasharray:none"
   id="path13721-7" /><g
   style="stroke-width:1.1499083"
   id="g17348"
   transform="matrix(4.7167015,0,0,-4.7167015,-10482.705,5559.8057)"><path
     inkscape:connector-curvature="0"
     id="path6581"
     style="font-style:normal;font-variant:normal;font-weight:normal;font-stretch:normal;letter-spacing:normal;word-spacing:normal;text-anchor:start;fill:#e3001b;fill-opacity:1;fill-rule:nonzero;stroke:none"
     d="m 2280.5034,1098.0271 0,2.7562 c 0.074,0.066 0.1845,0.178 0.424,0.212 l 1.6961,0 c 0.049,-0.034 0.1654,-0.1463 0.212,-0.212 l 0,-2.7562 0.4241,0 0.636,-1.0601 0,-3.8162 -0.848,-1.06 -1.6961,-3.8163 c -1.4905,-0.4282 -3.7124,-0.6742 -5.9364,-0.636 -2.3576,-0.038 -4.5773,0.2078 -6.1483,0.636 l -1.6961,3.8163 -0.8481,1.06 0,3.8162 0.8481,1.0601 0.424,0 0,2.7562 c -0.087,0.066 0.032,0.178 0.212,0.212 l 1.6961,0 c 0.106,-0.034 0.2184,-0.1463 0.212,-0.212 l 0,-2.7562 10.3886,0 z" /><path
     inkscape:connector-curvature="0"
     id="path6583"
     style="font-style:normal;font-variant:normal;font-weight:normal;font-stretch:normal;letter-spacing:normal;word-spacing:normal;text-anchor:start;fill:#ffffff;fill-rule:nonzero;stroke:none"
     d="m 2281.3515,1091.2427 -0.8481,-1.9081 c -0.9201,-0.3371 -3.0466,-0.6403 -5.0883,-0.636 -2.1752,0 -4.2996,0.2989 -5.3003,0.636 l -0.848,1.9081 12.0847,0 z" /><polygon
     id="polygon6585"
     style="font-style:normal;font-variant:normal;font-weight:normal;font-stretch:normal;letter-spacing:normal;word-spacing:normal;text-anchor:start;fill:#ffffff;fill-rule:nonzero;stroke:none"
     points="212.25,389.75 215.25,389.75 215.25,399.75 212.25,399.75 212.25,389.75 "
     transform="matrix(0.21201211,0,0,-0.21201211,2222.5711,1178.5387)" /><polygon
     id="polygon6587"
     style="font-style:normal;font-variant:normal;font-weight:normal;font-stretch:normal;letter-spacing:normal;word-spacing:normal;text-anchor:start;fill:#ffffff;fill-rule:nonzero;stroke:none"
     points="282.25,389.75 285.25,389.75 285.25,399.75 282.25,399.75 282.25,389.75 "
     transform="matrix(0.21201211,0,0,-0.21201211,2222.5711,1178.5387)" /><polygon
     id="polygon6589"
     style="font-style:normal;font-variant:normal;font-weight:normal;font-stretch:normal;letter-spacing:normal;word-spacing:normal;text-anchor:start;fill:#ffffff;fill-rule:nonzero;stroke:none"
     points="237.25,389.75 259.25,389.75 259.25,394.75 237.25,394.75 237.25,389.75 "
     transform="matrix(0.21201211,0,0,-0.21201211,2222.5711,1178.5387)" /><path
     inkscape:connector-curvature="0"
     id="path6591"
     style="font-style:normal;font-variant:normal;font-weight:normal;font-stretch:normal;letter-spacing:normal;word-spacing:normal;text-anchor:start;fill:#000000;fill-rule:nonzero;stroke:none"
     d="m 2289.8319,1098.0271 0,2.7562 c -0.017,0.066 -0.1272,0.178 -0.212,0.212 l -1.6961,0 c -0.2035,-0.034 -0.3222,-0.1463 -0.424,-0.212 l 0,-2.7562 -0.424,0 -0.6361,-1.0601 0,-3.8162 0.8481,-1.06 1.6961,-3.8163 c 1.5477,-0.4282 3.7696,-0.6742 6.1483,-0.636 2.2007,-0.038 4.4226,0.2078 5.9364,0.636 l 1.6961,3.8163 0.848,1.06 0,3.8162 -0.636,1.0601 -0.424,0 0,2.7562 c -0.068,0.066 -0.1845,0.178 -0.4241,0.212 l -1.6961,0 c -0.051,-0.034 -0.1611,-0.1463 -0.212,-0.212 l 0,-2.7562 -10.3886,0 z" /><path
     inkscape:connector-curvature="0"
     id="path6593"
     style="font-style:normal;font-variant:normal;font-weight:normal;font-stretch:normal;letter-spacing:normal;word-spacing:normal;text-anchor:start;fill:#ffffff;fill-rule:nonzero;stroke:none"
     d="m 2288.9839,1091.2427 0.848,-1.9081 c 0.9774,-0.3371 3.1039,-0.6403 5.3003,-0.636 2.0205,0 4.1449,0.2989 5.0883,0.636 l 0.8481,1.9081 -12.0847,0 z" /><polygon
     id="polygon6595"
     style="font-style:normal;font-variant:normal;font-weight:normal;font-stretch:normal;letter-spacing:normal;word-spacing:normal;text-anchor:start;fill:#ffffff;fill-rule:nonzero;stroke:none"
     points="375.25,389.75 378.25,389.75 378.25,399.75 375.25,399.75 375.25,389.75 "
     transform="matrix(0.21201211,0,0,-0.21201211,2222.5711,1178.5387)" /><polygon
     id="polygon6597"
     style="font-style:normal;font-variant:normal;font-weight:normal;font-stretch:normal;letter-spacing:normal;word-spacing:normal;text-anchor:start;fill:#ffffff;fill-rule:nonzero;stroke:none"
     points="305.25,389.75 308.25,389.75 308.25,399.75 305.25,399.75 305.25,389.75 "
     transform="matrix(0.21201211,0,0,-0.21201211,2222.5711,1178.5387)" /><polygon
     id="polygon6599"
     style="font-style:normal;font-variant:normal;font-weight:normal;font-stretch:normal;letter-spacing:normal;word-spacing:normal;text-anchor:start;fill:#ffffff;fill-rule:nonzero;stroke:none"
     points="332.25,389.75 353.25,389.75 353.25,394.75 332.25,394.75 332.25,389.75 "
     transform="matrix(0.21201211,0,0,-0.21201211,2222.5711,1178.5387)" /></g></g>  </g>
</svg>
