<?xml version="1.0" encoding="UTF-8" standalone="no"?>
<!-- Created with Inkscape (http://www.inkscape.org/) -->

<svg
   xmlns:dc="http://purl.org/dc/elements/1.1/"
   xmlns:cc="http://creativecommons.org/ns#"
   xmlns:rdf="http://www.w3.org/1999/02/22-rdf-syntax-ns#"
   xmlns:svg="http://www.w3.org/2000/svg"
   xmlns="http://www.w3.org/2000/svg"
   xmlns:sodipodi="http://sodipodi.sourceforge.net/DTD/sodipodi-0.dtd"
   xmlns:inkscape="http://www.inkscape.org/namespaces/inkscape"
   width="69.999992"
   height="61.289696"
   id="svg2"
   version="1.1"
   inkscape:version="0.48.4 r9939"
   sodipodi:docname="J21.svg">
  <defs
     id="defs4" />
  <sodipodi:namedview
     id="base"
     pagecolor="#ffffff"
     bordercolor="#666666"
     borderopacity="1.0"
     inkscape:pageopacity="0.0"
     inkscape:pageshadow="2"
     inkscape:zoom="14.08067"
     inkscape:cx="34.999994"
     inkscape:cy="30.644846"
     inkscape:document-units="px"
     inkscape:current-layer="layer1"
     showgrid="false"
     showborder="false"
     inkscape:showpageshadow="false"
     fit-margin-top="0"
     fit-margin-left="0"
     fit-margin-right="0"
     fit-margin-bottom="0"
     inkscape:window-width="1920"
     inkscape:window-height="1028"
     inkscape:window-x="-8"
     inkscape:window-y="-8"
     inkscape:window-maximized="1"
     showguides="true"
     inkscape:guide-bbox="true" />
  <metadata
     id="metadata7">
    <rdf:RDF>
      <cc:Work
         rdf:about="">
        <dc:format>image/svg+xml</dc:format>
        <dc:type
           rdf:resource="http://purl.org/dc/dcmitype/StillImage" />
        <dc:title></dc:title>
      </cc:Work>
    </rdf:RDF>
  </metadata>
  <g
     inkscape:label="Laag 1"
     inkscape:groupmode="layer"
     id="layer1"
     transform="translate(-383.68421,-327.57726)">
    <g
       id="g9482"
       style="font-style:normal;font-variant:normal;font-weight:normal;font-stretch:normal;letter-spacing:normal;word-spacing:normal;text-anchor:start;fill:none;stroke:#000000;stroke-width:1.03819978;stroke-linecap:butt;stroke-linejoin:miter;stroke-miterlimit:10.43299961;stroke-opacity:1;stroke-dasharray:none;stroke-dashoffset:0"
       xml:space="preserve"
       transform="matrix(0.23482344,0,0,-0.23482604,349.34128,451.74153)">
<path
   id="path9484"
   style="fill:#e3001b;fill-opacity:1;fill-rule:nonzero;stroke:none"
   d="m 295.25,528.75 -0.31,-0.05 -0.32,-0.05 -0.31,-0.07 -0.3,-0.07 -0.3,-0.09 -0.3,-0.09 -0.3,-0.1 -0.29,-0.11 -0.29,-0.12 -0.29,-0.12 -0.28,-0.13 -0.28,-0.14 -0.27,-0.14 -0.27,-0.16 -0.26,-0.15 -0.26,-0.17 -0.26,-0.17 -0.25,-0.17 -0.24,-0.18 -0.24,-0.19 -0.23,-0.19 -0.23,-0.19 -0.22,-0.2 -0.21,-0.21 -0.21,-0.2 -0.21,-0.21 -0.19,-0.22 -0.19,-0.22 -0.18,-0.22 -0.18,-0.22 -0.17,-0.22 -0.16,-0.23 -140,-242 c -0.43,-1.72 -0.79,-3.05 -1,-5 0.21,-4.67 4.5,-9.05 10,-9 l 279,0 c 3.40208,0 8.26842,2.98379 9,8.06846 0.28,1.95 -0.05,4.45154 -1,5.93154 l -140,242 c -0.88,2.2 -3.79,4.55 -8,5 z"
   inkscape:connector-curvature="0"
   sodipodi:nodetypes="ccccccccccccccccccccccccccccccccccccccccc" />
<polygon
   id="polygon9486"
   style="fill:#ffffff;fill-rule:nonzero;stroke:#ffffff;stroke-width:0"
   points="389.25,303.75 295.25,465.75 201.25,303.75 389.25,303.75 " />

<path
   id="path9488"
   style="font-style:normal;font-variant:normal;font-weight:normal;font-stretch:normal;letter-spacing:normal;word-spacing:normal;text-anchor:start;fill:none;stroke:#ffffff;stroke-width:6.38774252;stroke-miterlimit:10.43299961;stroke-opacity:1;stroke-dasharray:none"
   d="m 295.29164,520.95905 -1.31992,-0.9307 c -1.4981,-1.86267 -4.9732,-7.76696 -6.15183,-9.87687 l -129.25,-222.60965 c -1.33799,-1.77574 -3.90038,-5.89203 -3.90606,-6.28035 -1.97044,-3.08705 -1.64325,-6.67305 1.83485,-6.64145 l 267.95693,0 c 1.93045,-0.0186 6.48674,0.11228 9.10346,0.11228 3.34885,0 4.5518,2.76336 3.31949,4.69699 -0.70534,0.91533 -4.16022,6.74651 -5.03724,8.11253 l -129.25,222.60965 c -1.85306,2.7915 -5.99434,11.84206 -7.29968,10.80757 z"
   inkscape:connector-curvature="0"
   sodipodi:nodetypes="cccccccscccc" /><g
   transform="matrix(0.86053926,0,0,-0.87014766,144.251,530.9181)"
   id="g5495-3"
   style="fill:#000000;stroke:none"><path
     inkscape:connector-curvature="0"
     style="fill:#000000;stroke:none"
     d="m 176.02598,131.52073 c 5.25692,0 9.536,-4.22643 9.536,-9.4104 0,-5.19223 -4.27908,-9.41866 -9.536,-9.41866 -5.25693,0 -9.53601,4.22643 -9.53601,9.41866 0,5.18397 4.27908,9.4104 9.53601,9.4104"
     id="path5470-2" /><path
     inkscape:connector-curvature="0"
     style="fill:#000000;stroke:none"
     d="m 176.02598,132.90753 c -2.94187,0 -5.54944,1.32076 -7.27946,3.38444 l -27.16213,27.44702 3.46003,3.5743 21.61271,-16.37741 c 0.42623,9.08847 2.31505,18.63921 2.31505,18.63921 l -17.00768,60.55678 6.33505,0 20.04148,-45.59919 7.18752,19.50595 16.35579,24.08734 5.15662,-4.28421 -12.86231,-25.21824 -6.20133,-30.75716 -0.13372,-16.50948 4.76382,3.41746 3.30124,16.50948 4.76383,0.28892 -1.4375,-20.51304 -15.57018,-15.92339 c -3.46003,-3.16157 -7.63883,-2.22878 -7.63883,-2.22878"
     id="path5472-5" /><path
     inkscape:connector-curvature="0"
     style="fill:#000000;stroke:none"
     d="m 146.12255,251.28052 -24.02805,0 13.94045,-42.30555 17.55927,0 -7.47167,42.30555"
     id="path5474-2" /><path
     inkscape:connector-curvature="0"
     style="fill:#000000;stroke:none"
     d="m 105.96437,251.28052 -23.30929,0 23.30929,-42.30555 17.79329,0 -17.79329,42.30555"
     id="path5476-5" /><path
     inkscape:connector-curvature="0"
     style="fill:#000000;stroke:none"
     d="m 244.97604,251.28052 23.30928,0 -23.30928,-42.30555 -17.7933,0 17.7933,42.30555"
     id="path5478-8" /><path
     inkscape:connector-curvature="0"
     style="fill:#000000;stroke:none"
     d="m 169.98345,208.97497 13.90702,0 3.59375,42.30555 -24.02805,0 2.90844,-33.91873 3.61884,-8.38682"
     id="path5480-6" /><path
     inkscape:connector-curvature="0"
     style="fill:#000000;stroke:none"
     d="m 202.17686,208.97497 12.72859,0 13.94044,42.30555 -24.02804,0 -3.49347,-19.67105 8.85069,-6.61205 -7.99821,-16.02245"
     id="path5482-7" /></g></g>  </g>
</svg>
