<?xml version="1.0" encoding="UTF-8" standalone="no"?>
<!-- Created with Inkscape (http://www.inkscape.org/) -->

<svg
   xmlns:dc="http://purl.org/dc/elements/1.1/"
   xmlns:cc="http://creativecommons.org/ns#"
   xmlns:rdf="http://www.w3.org/1999/02/22-rdf-syntax-ns#"
   xmlns:svg="http://www.w3.org/2000/svg"
   xmlns="http://www.w3.org/2000/svg"
   xmlns:sodipodi="http://sodipodi.sourceforge.net/DTD/sodipodi-0.dtd"
   xmlns:inkscape="http://www.inkscape.org/namespaces/inkscape"
   width="69.999992"
   height="61.289696"
   id="svg2"
   version="1.1"
   inkscape:version="0.48.4 r9939"
   sodipodi:docname="J27.svg">
  <defs
     id="defs4" />
  <sodipodi:namedview
     id="base"
     pagecolor="#ffffff"
     bordercolor="#666666"
     borderopacity="1.0"
     inkscape:pageopacity="0.0"
     inkscape:pageshadow="2"
     inkscape:zoom="14.08067"
     inkscape:cx="34.999994"
     inkscape:cy="30.644846"
     inkscape:document-units="px"
     inkscape:current-layer="layer1"
     showgrid="false"
     showborder="false"
     inkscape:showpageshadow="false"
     fit-margin-top="0"
     fit-margin-left="0"
     fit-margin-right="0"
     fit-margin-bottom="0"
     inkscape:window-width="1920"
     inkscape:window-height="1028"
     inkscape:window-x="-8"
     inkscape:window-y="-8"
     inkscape:window-maximized="1"
     showguides="true"
     inkscape:guide-bbox="true" />
  <metadata
     id="metadata7">
    <rdf:RDF>
      <cc:Work
         rdf:about="">
        <dc:format>image/svg+xml</dc:format>
        <dc:type
           rdf:resource="http://purl.org/dc/dcmitype/StillImage" />
        <dc:title></dc:title>
      </cc:Work>
    </rdf:RDF>
  </metadata>
  <g
     inkscape:label="Laag 1"
     inkscape:groupmode="layer"
     id="layer1"
     transform="translate(-383.68421,-327.57726)">
    <g
       transform="matrix(0.23482344,0,0,-0.23482604,349.34128,451.74153)"
       xml:space="preserve"
       style="font-style:normal;font-variant:normal;font-weight:normal;font-stretch:normal;letter-spacing:normal;word-spacing:normal;text-anchor:start;fill:none;stroke:#000000;stroke-width:1.03819978;stroke-linecap:butt;stroke-linejoin:miter;stroke-miterlimit:10.43299961;stroke-opacity:1;stroke-dasharray:none;stroke-dashoffset:0"
       id="g9531">
<path
   sodipodi:nodetypes="ccccccccccccccccccccccccccccccccccccccccc"
   inkscape:connector-curvature="0"
   d="m 295.25,528.75 -0.31,-0.05 -0.32,-0.05 -0.31,-0.07 -0.3,-0.07 -0.3,-0.09 -0.3,-0.09 -0.3,-0.1 -0.29,-0.11 -0.29,-0.12 -0.29,-0.12 -0.28,-0.13 -0.28,-0.14 -0.27,-0.14 -0.27,-0.16 -0.26,-0.15 -0.26,-0.17 -0.26,-0.17 -0.25,-0.17 -0.24,-0.18 -0.24,-0.19 -0.23,-0.19 -0.23,-0.19 -0.22,-0.2 -0.21,-0.21 -0.21,-0.2 -0.21,-0.21 -0.19,-0.22 -0.19,-0.22 -0.18,-0.22 -0.18,-0.22 -0.17,-0.22 -0.16,-0.23 -140,-242 c -0.43,-1.72 -0.79,-3.05 -1,-5 0.21,-4.67 4.5,-9.05 10,-9 l 279,0 c 3.40208,0 8.26842,2.98379 9,8.06846 0.28,1.95 -0.05,4.45154 -1,5.93154 l -140,242 c -0.88,2.2 -3.79,4.55 -8,5 z"
   style="fill:#e3001b;fill-opacity:1;fill-rule:nonzero;stroke:none"
   id="path9533" />
<polygon
   points="201.25,303.75 389.25,303.75 389.25,303.75 295.25,465.75 "
   style="fill:#ffffff;fill-rule:nonzero;stroke:#ffffff;stroke-width:0"
   id="polygon9535" />

<path
   sodipodi:nodetypes="cccccccscccc"
   inkscape:connector-curvature="0"
   d="m 295.29164,520.95905 -1.31992,-0.9307 c -1.4981,-1.86267 -4.9732,-7.76696 -6.15183,-9.87687 l -129.25,-222.60965 c -1.33799,-1.77574 -3.90038,-5.89203 -3.90606,-6.28035 -1.97044,-3.08705 -1.64325,-6.67305 1.83485,-6.64145 l 267.95693,0 c 1.93045,-0.0186 6.48674,0.11228 9.10346,0.11228 3.34885,0 4.5518,2.76336 3.31949,4.69699 -0.70534,0.91533 -4.16022,6.74651 -5.03724,8.11253 l -129.25,222.60965 c -1.85306,2.7915 -5.99434,11.84206 -7.29968,10.80757 z"
   style="font-style:normal;font-variant:normal;font-weight:normal;font-stretch:normal;letter-spacing:normal;word-spacing:normal;text-anchor:start;fill:none;stroke:#ffffff;stroke-width:6.38774252;stroke-miterlimit:10.43299961;stroke-opacity:1;stroke-dasharray:none"
   id="path9537" /><path
   inkscape:connector-curvature="0"
   style="fill:#000000;stroke:none"
   id="path5679-9"
   d="m 263.99011,377.54105 c 1.139,-0.306 2.9186,-1.7576 2.9186,-1.7576 l 14.2372,-3.9775 c 0,0 53.4394,0.5336 55.1123,0.2775 0.8328,-0.1637 1.3596,-0.8895 2.1925,-2.526 0,-2.1987 0.029,-22.9618 0,-30.9383 0,-1.9995 0.6122,-1.8572 1.2244,-2.9174 0.6122,-1.0246 0.4769,-3.8637 0,-4.0274 -0.4698,-0.1707 -2.9186,2.3339 -3.2247,3.7499 -0.3061,1.4445 0,3.6147 0,3.6147 0,0 0.1424,22.0154 0,22.6772 -0.2207,1.2523 -1.1675,1.3946 -1.4736,0.5621 -0.3061,-0.8396 0,-41.2202 0,-41.2202 l -0.4983,-4.5326 -5.0898,0 2.7264,6.5605 c 0,0 0.6692,2.0849 0.3916,5.6711 -0.2848,3.6075 -4.257,8.0049 -4.257,8.0049 0,0 -1.139,-0.3913 -4.4491,0.4412 -3.3386,0.8325 -5.5311,5.2512 -5.5311,5.2512 0,0 -23.1355,0.6404 -24.3884,-0.1067 -1.2244,-0.7258 -3.7586,-3.145 -4.0362,-5.9201 -0.2777,-2.7537 -0.1068,-10.0115 -0.3844,-13.8966 -0.2777,-3.8637 -0.8614,-6.0055 -0.8614,-6.0055 l -4.3708,0 c 0,0 1.5875,3.6432 2.1996,6.6388 1.0821,5.5643 -2.0288,15.0422 -3.1179,16.7072 -1.1105,1.665 -2.9756,0.9179 -5.1966,3.9776 -2.2281,3.0525 -4.4206,8.8375 -4.4206,8.8375 0,0 -2.1997,1.3021 -5.2322,3.7783 -3.0539,2.5047 -6.5562,5.6141 -6.5562,5.6141 0,0 -2.7834,0.2776 -4.8692,-0.1067 -0.7545,-0.1423 -0.7261,-0.5835 -1.445,-0.7258 -2.7834,-0.555 -3.0041,0 -3.0041,0 l -2.1712,2.526 c 0,0 7.4532,10.04 7.6454,10.7587 0.2278,0.7258 -2.2779,2.092 -2.3847,2.59 -0.086,0.5266 5.0827,0.8326 5.0827,0.8326 0,0 2.0857,-0.1068 3.2318,-0.4127" /></g>  </g>
</svg>
