<?xml version="1.0" encoding="UTF-8" standalone="no"?>
<!-- Created with Inkscape (http://www.inkscape.org/) -->

<svg
   xmlns:dc="http://purl.org/dc/elements/1.1/"
   xmlns:cc="http://creativecommons.org/ns#"
   xmlns:rdf="http://www.w3.org/1999/02/22-rdf-syntax-ns#"
   xmlns:svg="http://www.w3.org/2000/svg"
   xmlns="http://www.w3.org/2000/svg"
   xmlns:sodipodi="http://sodipodi.sourceforge.net/DTD/sodipodi-0.dtd"
   xmlns:inkscape="http://www.inkscape.org/namespaces/inkscape"
   width="40"
   height="60"
   id="svg2"
   version="1.1"
   inkscape:version="0.48.4 r9939"
   sodipodi:docname="H2.svg">
  <defs
     id="defs4" />
  <sodipodi:namedview
     id="base"
     pagecolor="#ffffff"
     bordercolor="#666666"
     borderopacity="1.0"
     inkscape:pageopacity="0.0"
     inkscape:pageshadow="2"
     inkscape:zoom="14.383333"
     inkscape:cx="20"
     inkscape:cy="29.999996"
     inkscape:document-units="px"
     inkscape:current-layer="layer1"
     showgrid="false"
     showborder="false"
     inkscape:showpageshadow="false"
     fit-margin-top="0"
     fit-margin-left="0"
     fit-margin-right="0"
     fit-margin-bottom="0"
     inkscape:window-width="1920"
     inkscape:window-height="1028"
     inkscape:window-x="-8"
     inkscape:window-y="-8"
     inkscape:window-maximized="1"
     showguides="true"
     inkscape:guide-bbox="true" />
  <metadata
     id="metadata7">
    <rdf:RDF>
      <cc:Work
         rdf:about="">
        <dc:format>image/svg+xml</dc:format>
        <dc:type
           rdf:resource="http://purl.org/dc/dcmitype/StillImage" />
        <dc:title></dc:title>
      </cc:Work>
    </rdf:RDF>
  </metadata>
  <g
     inkscape:label="Laag 1"
     inkscape:groupmode="layer"
     id="layer1"
     transform="translate(-413.6842,-328.86695)">
    <g
       transform="matrix(0.17620926,0,0,-0.17595308,381.57056,431.93147)"
       xml:space="preserve"
       style="font-style:normal;font-variant:normal;font-weight:normal;font-stretch:normal;letter-spacing:normal;word-spacing:normal;text-anchor:start;fill:none;stroke:none"
       id="g3095-7">
<path
   d="m 182.25,573.75 0,0.61 0.03,0.6 0.07,0.58 0.08,0.58 0.12,0.57 0.14,0.56 0.17,0.54 0.2,0.53 0.22,0.52 0.24,0.5 0.26,0.49 0.29,0.48 0.31,0.46 0.33,0.44 0.35,0.43 0.37,0.41 0.38,0.39 0.4,0.37 0.42,0.35 0.44,0.34 0.45,0.31 0.46,0.29 0.48,0.28 0.49,0.24 0.51,0.23 0.51,0.2 0.53,0.18 0.53,0.16 0.54,0.13 0.56,0.1 0.55,0.08 0.57,0.05 204,0 c 6.56,-0.4 11.63,-5.48 12,-12 l 0,-317 c -0.37,-6.48 -5.44,-11.56 -12,-12 l -204,0 c -6.06,0.44 -11.14,5.52 -11,12 l 0,317 z"
   style="fill:#004d9f;fill-opacity:1;fill-rule:nonzero;stroke:none"
   id="path3097-7"
   inkscape:connector-curvature="0" />
<path
   d="m 190.25,560.75 0,0.84 0.05,0.84 0.1,0.82 0.13,0.81 0.18,0.8 0.21,0.79 0.26,0.77 0.29,0.76 0.34,0.73 0.36,0.72 0.41,0.71 0.43,0.68 0.47,0.66 0.51,0.63 0.53,0.62 0.56,0.59 0.59,0.56 0.62,0.54 0.65,0.51 0.67,0.48 0.69,0.45 0.72,0.42 0.74,0.39 0.76,0.35 0.78,0.33 0.8,0.28 0.82,0.25 0.84,0.21 0.85,0.18 0.87,0.13 0.88,0.1 0.89,0.05 177,0 c 9.08,-0.34 16.7,-7.95 17,-17 l 0,-291 c -0.3,-9 -7.92,-16.62 -17,-17 l -177,0 c -9.59,0.38 -17.2,8 -17,17 l 0,291 z"
   style="fill:#ffffff;fill-rule:nonzero;stroke:none"
   id="path3099-4"
   inkscape:connector-curvature="0" />
<path
   d="m 198.25,560.75 0.04,0.41 0.06,0.4 0.08,0.4 0.09,0.39 0.12,0.39 0.13,0.38 0.16,0.37 0.17,0.37 0.18,0.36 0.21,0.35 0.22,0.34 0.23,0.33 0.25,0.32 0.27,0.3 0.28,0.3 0.29,0.28 0.31,0.27 0.32,0.26 0.33,0.24 0.34,0.23 0.36,0.21 0.37,0.19 0.37,0.18 0.39,0.16 0.4,0.14 0.41,0.12 0.42,0.11 0.42,0.08 0.44,0.06 0.44,0.04 0.44,0.02 0.46,0 177,0 c 4.39,0.16 8.19,-3.65 8,-8 l 0,-291 c 0.19,-4.31 -3.61,-8.12 -8,-8 l -177,0 c -4.89,-0.12 -8.7,3.69 -9,8 l 0,291 z"
   style="fill:#004d9f;fill-opacity:1;fill-rule:nonzero;stroke:none"
   id="path3101-5"
   inkscape:connector-curvature="0" />








<g
   id="g18436-1"
   transform="matrix(1.1350141,0,0,-1.1366667,181.63631,588.75003)"><path
     inkscape:connector-curvature="0"
     style="fill:#f7fbf5"
     id="wit_blok-1"
     d="m 91.339466,266.16306 17.525814,0 0,-188.47209 -17.525814,0 0,188.47209" /><path
     inkscape:connector-curvature="0"
     style="fill:#e3001b;fill-opacity:1;stroke:#ffffff;stroke-width:5;stroke-miterlimit:4;stroke-opacity:1;stroke-dasharray:none"
     id="rood_blok-1"
     d="m 64.352496,77.9914 71.498884,0 0,-36.37768 -71.498884,0 0,36.37768" /></g></g>  </g>
</svg>
